<?xml version="1.0" encoding="UTF-8" standalone="no"?>
<!DOCTYPE svg PUBLIC "-//W3C//DTD SVG 1.1//EN"
 "http://www.w3.org/Graphics/SVG/1.1/DTD/svg11.dtd">
<!-- Generated by graphviz version 2.43.0 (0)
 -->
<!-- Title: G Pages: 1 -->
<svg width="638pt" height="688pt"
 viewBox="0.00 0.00 638.00 688.00" xmlns="http://www.w3.org/2000/svg" xmlns:xlink="http://www.w3.org/1999/xlink">
<g id="graph0" class="graph" transform="scale(1 1) rotate(0) translate(4 684)">
<title>G</title>
<polygon fill="white" stroke="transparent" points="-4,4 -4,-684 634,-684 634,4 -4,4"/>
<text text-anchor="middle" x="315" y="-6.4" font-family="Verdana" font-size="7.00" fill="#000000" fill-opacity="0.498039">Generated by Python Call Graph v1.1.3</text>
<g id="clust1" class="cluster">
<title>cluster___main__</title>
<polygon fill="none" stroke="#000000" stroke-width="2" stroke-opacity="0.800000" points="402,-601 402,-672 494,-672 494,-601 402,-601"/>
<text text-anchor="middle" x="448" y="-660" font-family="Verdana" font-size="10.00">__main__</text>
</g>
<g id="clust2" class="cluster">
<title>cluster_negf</title>
<polygon fill="none" stroke="#000000" stroke-width="2" stroke-opacity="0.800000" points="8,-24 8,-575 605,-575 605,-24 8,-24"/>
<text text-anchor="middle" x="306.5" y="-563" font-family="Verdana" font-size="10.00">negf</text>
</g>
<!-- __main__ -->
<g id="node1" class="node">
<title>__main__</title>
<polygon fill="#e5e5e5" stroke="#e5e5e5" points="486,-645 410,-645 410,-609 486,-609 486,-645"/>
<text text-anchor="middle" x="448" y="-633.4" font-family="Verdana" font-size="7.00" fill="#000000">__main__</text>
<text text-anchor="middle" x="448" y="-625.4" font-family="Verdana" font-size="7.00" fill="#000000">calls: 1</text>
<text text-anchor="middle" x="448" y="-617.4" font-family="Verdana" font-size="7.00" fill="#000000">time: 0.000000s</text>
</g>
<!-- negf.bpt.__init__ -->
<g id="node2" class="node">
<title>negf.bpt.__init__</title>
<polygon fill="#e54ce5" stroke="#e54ce5" points="580.5,-228 495.5,-228 495.5,-192 580.5,-192 580.5,-228"/>
<text text-anchor="middle" x="538" y="-216.4" font-family="Verdana" font-size="7.00" fill="#000000">negf.bpt.__init__</text>
<text text-anchor="middle" x="538" y="-208.4" font-family="Verdana" font-size="7.00" fill="#000000">calls: 1</text>
<text text-anchor="middle" x="538" y="-200.4" font-family="Verdana" font-size="7.00" fill="#000000">time: 146.268597s</text>
</g>
<!-- __main__&#45;&gt;negf.bpt.__init__ -->
<g id="edge23" class="edge">
<title>__main__&#45;&gt;negf.bpt.__init__</title>
<path fill="none" stroke="#b23bb2" d="M486.41,-622.33C538.46,-615 625,-593.43 625,-531 625,-531 625,-531 625,-289 625,-264.77 606.06,-246.17 585.86,-233.22"/>
<polygon fill="#b23bb2" stroke="#b23bb2" points="587.55,-230.16 577.17,-228.02 583.95,-236.16 587.55,-230.16"/>
<text text-anchor="middle" x="627.5" y="-408.4" font-family="Verdana" font-size="7.00" fill="#000000">1</text>
</g>
<!-- negf.bpt.setbias -->
<g id="node5" class="node">
<title>negf.bpt.setbias</title>
<polygon fill="#e5e5e5" stroke="#e5e5e5" points="390,-548 314,-548 314,-512 390,-512 390,-548"/>
<text text-anchor="middle" x="352" y="-536.4" font-family="Verdana" font-size="7.00" fill="#000000">negf.bpt.setbias</text>
<text text-anchor="middle" x="352" y="-528.4" font-family="Verdana" font-size="7.00" fill="#000000">calls: 1</text>
<text text-anchor="middle" x="352" y="-520.4" font-family="Verdana" font-size="7.00" fill="#000000">time: 0.000241s</text>
</g>
<!-- __main__&#45;&gt;negf.bpt.setbias -->
<g id="edge24" class="edge">
<title>__main__&#45;&gt;negf.bpt.setbias</title>
<path fill="none" stroke="#b2b2b2" d="M430.39,-608.58C415.37,-593.71 393.6,-572.17 376.82,-555.56"/>
<polygon fill="#b2b2b2" stroke="#b2b2b2" points="379.07,-552.86 369.5,-548.31 374.14,-557.84 379.07,-552.86"/>
<text text-anchor="middle" x="413.5" y="-585.4" font-family="Verdana" font-size="7.00" fill="#000000">1</text>
</g>
<!-- negf.bpt.getps -->
<g id="node6" class="node">
<title>negf.bpt.getps</title>
<polygon fill="#d0dfe5" stroke="#d0dfe5" points="488,-548 408,-548 408,-512 488,-512 488,-548"/>
<text text-anchor="middle" x="448" y="-536.4" font-family="Verdana" font-size="7.00" fill="#000000">negf.bpt.getps</text>
<text text-anchor="middle" x="448" y="-528.4" font-family="Verdana" font-size="7.00" fill="#000000">calls: 1</text>
<text text-anchor="middle" x="448" y="-520.4" font-family="Verdana" font-size="7.00" fill="#000000">time: 20.427139s</text>
</g>
<!-- __main__&#45;&gt;negf.bpt.getps -->
<g id="edge25" class="edge">
<title>__main__&#45;&gt;negf.bpt.getps</title>
<path fill="none" stroke="#a1adb2" d="M448,-608.58C448,-594.65 448,-574.86 448,-558.76"/>
<polygon fill="#a1adb2" stroke="#a1adb2" points="451.5,-558.31 448,-548.31 444.5,-558.31 451.5,-558.31"/>
<text text-anchor="middle" x="450.5" y="-585.4" font-family="Verdana" font-size="7.00" fill="#000000">1</text>
</g>
<!-- negf.bpt.getdynmat -->
<g id="node3" class="node">
<title>negf.bpt.getdynmat</title>
<polygon fill="#e54ce5" stroke="#e54ce5" points="499.5,-148 410.5,-148 410.5,-112 499.5,-112 499.5,-148"/>
<text text-anchor="middle" x="455" y="-136.4" font-family="Verdana" font-size="7.00" fill="#000000">negf.bpt.getdynmat</text>
<text text-anchor="middle" x="455" y="-128.4" font-family="Verdana" font-size="7.00" fill="#000000">calls: 1</text>
<text text-anchor="middle" x="455" y="-120.4" font-family="Verdana" font-size="7.00" fill="#000000">time: 146.267868s</text>
</g>
<!-- negf.bpt.__init__&#45;&gt;negf.bpt.getdynmat -->
<g id="edge1" class="edge">
<title>negf.bpt.__init__&#45;&gt;negf.bpt.getdynmat</title>
<path fill="none" stroke="#b23bb2" d="M519.58,-191.69C508.19,-180.98 493.4,-167.08 480.84,-155.29"/>
<polygon fill="#b23bb2" stroke="#b23bb2" points="483.05,-152.56 473.37,-148.26 478.26,-157.66 483.05,-152.56"/>
<text text-anchor="middle" x="500.5" y="-168.4" font-family="Verdana" font-size="7.00" fill="#000000">1</text>
</g>
<!-- negf.bpt.&lt;listcomp&gt; -->
<g id="node4" class="node">
<title>negf.bpt.&lt;listcomp&gt;</title>
<polygon fill="#9998e5" stroke="#9998e5" points="410,-68 318,-68 318,-32 410,-32 410,-68"/>
<text text-anchor="middle" x="364" y="-56.4" font-family="Verdana" font-size="7.00" fill="#000000">negf.bpt.&lt;listcomp&gt;</text>
<text text-anchor="middle" x="364" y="-48.4" font-family="Verdana" font-size="7.00" fill="#000000">calls: 784</text>
<text text-anchor="middle" x="364" y="-40.4" font-family="Verdana" font-size="7.00" fill="#000000">time: 0.116931s</text>
</g>
<!-- negf.bpt.getdynmat&#45;&gt;negf.bpt.&lt;listcomp&gt; -->
<g id="edge2" class="edge">
<title>negf.bpt.getdynmat&#45;&gt;negf.bpt.&lt;listcomp&gt;</title>
<path fill="none" stroke="#b2b2b2" d="M434.8,-111.69C422.2,-100.88 405.79,-86.82 391.95,-74.95"/>
<polygon fill="#b2b2b2" stroke="#b2b2b2" points="394.01,-72.11 384.14,-68.26 389.45,-77.43 394.01,-72.11"/>
<text text-anchor="middle" x="414.5" y="-88.4" font-family="Verdana" font-size="7.00" fill="#000000">4</text>
</g>
<!-- negf.bpt.ps -->
<g id="node7" class="node">
<title>negf.bpt.ps</title>
<polygon fill="#ccdde5" stroke="#ccdde5" points="378,-468 298,-468 298,-432 378,-432 378,-468"/>
<text text-anchor="middle" x="338" y="-456.4" font-family="Verdana" font-size="7.00" fill="#000000">negf.bpt.ps</text>
<text text-anchor="middle" x="338" y="-448.4" font-family="Verdana" font-size="7.00" fill="#000000">calls: 39</text>
<text text-anchor="middle" x="338" y="-440.4" font-family="Verdana" font-size="7.00" fill="#000000">time: 19.985785s</text>
</g>
<!-- negf.bpt.getps&#45;&gt;negf.bpt.ps -->
<g id="edge3" class="edge">
<title>negf.bpt.getps&#45;&gt;negf.bpt.ps</title>
<path fill="none" stroke="#9facb2" d="M423.86,-511.88C408.24,-500.81 387.72,-486.25 370.65,-474.15"/>
<polygon fill="#9facb2" stroke="#9facb2" points="372.27,-471.01 362.08,-468.08 368.22,-476.72 372.27,-471.01"/>
<text text-anchor="middle" x="401" y="-488.4" font-family="Verdana" font-size="7.00" fill="#000000">39</text>
</g>
<!-- negf.bpt.retargf -->
<g id="node8" class="node">
<title>negf.bpt.retargf</title>
<polygon fill="#dbe4e5" stroke="#dbe4e5" points="327,-308 251,-308 251,-272 327,-272 327,-308"/>
<text text-anchor="middle" x="289" y="-296.4" font-family="Verdana" font-size="7.00" fill="#000000">negf.bpt.retargf</text>
<text text-anchor="middle" x="289" y="-288.4" font-family="Verdana" font-size="7.00" fill="#000000">calls: 39</text>
<text text-anchor="middle" x="289" y="-280.4" font-family="Verdana" font-size="7.00" fill="#000000">time: 6.300358s</text>
</g>
<!-- negf.bpt.ps&#45;&gt;negf.bpt.retargf -->
<g id="edge4" class="edge">
<title>negf.bpt.ps&#45;&gt;negf.bpt.retargf</title>
<path fill="none" stroke="#aab1b2" d="M332.66,-431.79C324.16,-404.37 307.46,-350.53 297.36,-317.96"/>
<polygon fill="#aab1b2" stroke="#aab1b2" points="300.64,-316.7 294.33,-308.19 293.95,-318.78 300.64,-316.7"/>
<text text-anchor="middle" x="323" y="-368.4" font-family="Verdana" font-size="7.00" fill="#000000">39</text>
</g>
<!-- negf.bpt.totalkselfenergy -->
<g id="node9" class="node">
<title>negf.bpt.totalkselfenergy</title>
<polygon fill="#dce4e5" stroke="#dce4e5" points="241.5,-388 132.5,-388 132.5,-352 241.5,-352 241.5,-388"/>
<text text-anchor="middle" x="187" y="-376.4" font-family="Verdana" font-size="7.00" fill="#000000">negf.bpt.totalkselfenergy</text>
<text text-anchor="middle" x="187" y="-368.4" font-family="Verdana" font-size="7.00" fill="#000000">calls: 39</text>
<text text-anchor="middle" x="187" y="-360.4" font-family="Verdana" font-size="7.00" fill="#000000">time: 4.922821s</text>
</g>
<!-- negf.bpt.ps&#45;&gt;negf.bpt.totalkselfenergy -->
<g id="edge5" class="edge">
<title>negf.bpt.ps&#45;&gt;negf.bpt.totalkselfenergy</title>
<path fill="none" stroke="#abb1b2" d="M304.86,-431.88C282.64,-420.4 253.17,-405.18 229.26,-392.83"/>
<polygon fill="#abb1b2" stroke="#abb1b2" points="230.55,-389.56 220.06,-388.08 227.34,-395.78 230.55,-389.56"/>
<text text-anchor="middle" x="272" y="-408.4" font-family="Verdana" font-size="7.00" fill="#000000">39</text>
</g>
<!-- negf.bpt.advangf -->
<g id="node10" class="node">
<title>negf.bpt.advangf</title>
<polygon fill="#dbe4e5" stroke="#dbe4e5" points="445.5,-388 368.5,-388 368.5,-352 445.5,-352 445.5,-388"/>
<text text-anchor="middle" x="407" y="-376.4" font-family="Verdana" font-size="7.00" fill="#000000">negf.bpt.advangf</text>
<text text-anchor="middle" x="407" y="-368.4" font-family="Verdana" font-size="7.00" fill="#000000">calls: 39</text>
<text text-anchor="middle" x="407" y="-360.4" font-family="Verdana" font-size="7.00" fill="#000000">time: 5.875297s</text>
</g>
<!-- negf.bpt.ps&#45;&gt;negf.bpt.advangf -->
<g id="edge6" class="edge">
<title>negf.bpt.ps&#45;&gt;negf.bpt.advangf</title>
<path fill="none" stroke="#aab1b2" d="M353.31,-431.69C362.6,-421.19 374.62,-407.61 384.92,-395.96"/>
<polygon fill="#aab1b2" stroke="#aab1b2" points="387.73,-398.07 391.73,-388.26 382.48,-393.43 387.73,-398.07"/>
<text text-anchor="middle" x="379" y="-408.4" font-family="Verdana" font-size="7.00" fill="#000000">39</text>
</g>
<!-- negf.bpt.retarselfenergy -->
<g id="node11" class="node">
<title>negf.bpt.retarselfenergy</title>
<polygon fill="#c9dbe5" stroke="#c9dbe5" points="464.5,-228 359.5,-228 359.5,-192 464.5,-192 464.5,-228"/>
<text text-anchor="middle" x="412" y="-216.4" font-family="Verdana" font-size="7.00" fill="#000000">negf.bpt.retarselfenergy</text>
<text text-anchor="middle" x="412" y="-208.4" font-family="Verdana" font-size="7.00" fill="#000000">calls: 234</text>
<text text-anchor="middle" x="412" y="-200.4" font-family="Verdana" font-size="7.00" fill="#000000">time: 5.187646s</text>
</g>
<!-- negf.bpt.retargf&#45;&gt;negf.bpt.retarselfenergy -->
<g id="edge7" class="edge">
<title>negf.bpt.retargf&#45;&gt;negf.bpt.retarselfenergy</title>
<path fill="none" stroke="#a8b0b2" d="M318.61,-271.88C328.07,-266.29 338.54,-259.98 348,-254 358.15,-247.58 369.05,-240.38 378.92,-233.74"/>
<polygon fill="#a8b0b2" stroke="#a8b0b2" points="380.97,-236.58 387.29,-228.07 377.05,-230.78 380.97,-236.58"/>
<text text-anchor="middle" x="365" y="-248.4" font-family="Verdana" font-size="7.00" fill="#000000">78</text>
</g>
<!-- negf.bpt.retarbiasselfenergy -->
<g id="node12" class="node">
<title>negf.bpt.retarbiasselfenergy</title>
<polygon fill="#d6e2e5" stroke="#d6e2e5" points="341,-228 221,-228 221,-192 341,-192 341,-228"/>
<text text-anchor="middle" x="281" y="-216.4" font-family="Verdana" font-size="7.00" fill="#000000">negf.bpt.retarbiasselfenergy</text>
<text text-anchor="middle" x="281" y="-208.4" font-family="Verdana" font-size="7.00" fill="#000000">calls: 117</text>
<text text-anchor="middle" x="281" y="-200.4" font-family="Verdana" font-size="7.00" fill="#000000">time: 3.194708s</text>
</g>
<!-- negf.bpt.retargf&#45;&gt;negf.bpt.retarbiasselfenergy -->
<g id="edge8" class="edge">
<title>negf.bpt.retargf&#45;&gt;negf.bpt.retarbiasselfenergy</title>
<path fill="none" stroke="#acb1b2" d="M287.22,-271.69C286.22,-261.89 284.94,-249.42 283.8,-238.33"/>
<polygon fill="#acb1b2" stroke="#acb1b2" points="287.27,-237.85 282.77,-228.26 280.31,-238.57 287.27,-237.85"/>
<text text-anchor="middle" x="290" y="-248.4" font-family="Verdana" font-size="7.00" fill="#000000">39</text>
</g>
<!-- negf.bpt.kselfenergy -->
<g id="node14" class="node">
<title>negf.bpt.kselfenergy</title>
<polygon fill="#dbe4e5" stroke="#dbe4e5" points="233,-308 141,-308 141,-272 233,-272 233,-308"/>
<text text-anchor="middle" x="187" y="-296.4" font-family="Verdana" font-size="7.00" fill="#000000">negf.bpt.kselfenergy</text>
<text text-anchor="middle" x="187" y="-288.4" font-family="Verdana" font-size="7.00" fill="#000000">calls: 78</text>
<text text-anchor="middle" x="187" y="-280.4" font-family="Verdana" font-size="7.00" fill="#000000">time: 1.871696s</text>
</g>
<!-- negf.bpt.totalkselfenergy&#45;&gt;negf.bpt.kselfenergy -->
<g id="edge12" class="edge">
<title>negf.bpt.totalkselfenergy&#45;&gt;negf.bpt.kselfenergy</title>
<path fill="none" stroke="#abb1b2" d="M187,-351.69C187,-341.89 187,-329.42 187,-318.33"/>
<polygon fill="#abb1b2" stroke="#abb1b2" points="190.5,-318.26 187,-308.26 183.5,-318.26 190.5,-318.26"/>
<text text-anchor="middle" x="192" y="-328.4" font-family="Verdana" font-size="7.00" fill="#000000">78</text>
</g>
<!-- negf.bpt.kbiasselfenergy -->
<g id="node15" class="node">
<title>negf.bpt.kbiasselfenergy</title>
<polygon fill="#dee4e5" stroke="#dee4e5" points="122.5,-308 15.5,-308 15.5,-272 122.5,-272 122.5,-308"/>
<text text-anchor="middle" x="69" y="-296.4" font-family="Verdana" font-size="7.00" fill="#000000">negf.bpt.kbiasselfenergy</text>
<text text-anchor="middle" x="69" y="-288.4" font-family="Verdana" font-size="7.00" fill="#000000">calls: 39</text>
<text text-anchor="middle" x="69" y="-280.4" font-family="Verdana" font-size="7.00" fill="#000000">time: 2.957427s</text>
</g>
<!-- negf.bpt.totalkselfenergy&#45;&gt;negf.bpt.kbiasselfenergy -->
<g id="edge13" class="edge">
<title>negf.bpt.totalkselfenergy&#45;&gt;negf.bpt.kbiasselfenergy</title>
<path fill="none" stroke="#adb2b2" d="M161.1,-351.88C144.12,-340.66 121.72,-325.85 103.27,-313.65"/>
<polygon fill="#adb2b2" stroke="#adb2b2" points="105.11,-310.67 94.84,-308.08 101.25,-316.51 105.11,-310.67"/>
<text text-anchor="middle" x="136" y="-328.4" font-family="Verdana" font-size="7.00" fill="#000000">39</text>
</g>
<!-- negf.bpt.advanselfenergy -->
<g id="node17" class="node">
<title>negf.bpt.advanselfenergy</title>
<polygon fill="#dce4e5" stroke="#dce4e5" points="596.5,-308 487.5,-308 487.5,-272 596.5,-272 596.5,-308"/>
<text text-anchor="middle" x="542" y="-296.4" font-family="Verdana" font-size="7.00" fill="#000000">negf.bpt.advanselfenergy</text>
<text text-anchor="middle" x="542" y="-288.4" font-family="Verdana" font-size="7.00" fill="#000000">calls: 78</text>
<text text-anchor="middle" x="542" y="-280.4" font-family="Verdana" font-size="7.00" fill="#000000">time: 1.775895s</text>
</g>
<!-- negf.bpt.advangf&#45;&gt;negf.bpt.advanselfenergy -->
<g id="edge19" class="edge">
<title>negf.bpt.advangf&#45;&gt;negf.bpt.advanselfenergy</title>
<path fill="none" stroke="#abb1b2" d="M436.63,-351.88C456.32,-340.5 482.38,-325.45 503.65,-313.16"/>
<polygon fill="#abb1b2" stroke="#abb1b2" points="505.54,-316.11 512.44,-308.08 502.03,-310.05 505.54,-316.11"/>
<text text-anchor="middle" x="483" y="-328.4" font-family="Verdana" font-size="7.00" fill="#000000">78</text>
</g>
<!-- negf.bpt.advanbiasselfenergy -->
<g id="node18" class="node">
<title>negf.bpt.advanbiasselfenergy</title>
<polygon fill="#e0e5e5" stroke="#e0e5e5" points="469,-308 345,-308 345,-272 469,-272 469,-308"/>
<text text-anchor="middle" x="407" y="-296.4" font-family="Verdana" font-size="7.00" fill="#000000">negf.bpt.advanbiasselfenergy</text>
<text text-anchor="middle" x="407" y="-288.4" font-family="Verdana" font-size="7.00" fill="#000000">calls: 39</text>
<text text-anchor="middle" x="407" y="-280.4" font-family="Verdana" font-size="7.00" fill="#000000">time: 1.078544s</text>
</g>
<!-- negf.bpt.advangf&#45;&gt;negf.bpt.advanbiasselfenergy -->
<g id="edge20" class="edge">
<title>negf.bpt.advangf&#45;&gt;negf.bpt.advanbiasselfenergy</title>
<path fill="none" stroke="#aeb2b2" d="M407,-351.69C407,-341.89 407,-329.42 407,-318.33"/>
<polygon fill="#aeb2b2" stroke="#aeb2b2" points="410.5,-318.26 407,-308.26 403.5,-318.26 410.5,-318.26"/>
<text text-anchor="middle" x="412" y="-328.4" font-family="Verdana" font-size="7.00" fill="#000000">39</text>
</g>
<!-- negf.bpt.cleanse -->
<g id="node13" class="node">
<title>negf.bpt.cleanse</title>
<polygon fill="#b7c9e5" stroke="#b7c9e5" points="360.5,-148 283.5,-148 283.5,-112 360.5,-112 360.5,-148"/>
<text text-anchor="middle" x="322" y="-136.4" font-family="Verdana" font-size="7.00" fill="#000000">negf.bpt.cleanse</text>
<text text-anchor="middle" x="322" y="-128.4" font-family="Verdana" font-size="7.00" fill="#000000">calls: 390</text>
<text text-anchor="middle" x="322" y="-120.4" font-family="Verdana" font-size="7.00" fill="#000000">time: 8.023392s</text>
</g>
<!-- negf.bpt.retarselfenergy&#45;&gt;negf.bpt.cleanse -->
<g id="edge9" class="edge">
<title>negf.bpt.retarselfenergy&#45;&gt;negf.bpt.cleanse</title>
<path fill="none" stroke="#9aa8b2" d="M392.03,-191.69C379.56,-180.88 363.33,-166.82 349.64,-154.95"/>
<polygon fill="#9aa8b2" stroke="#9aa8b2" points="351.77,-152.17 341.92,-148.26 347.18,-157.46 351.77,-152.17"/>
<text text-anchor="middle" x="376" y="-168.4" font-family="Verdana" font-size="7.00" fill="#000000">234</text>
</g>
<!-- negf.bpt.retarbiasselfenergy&#45;&gt;negf.bpt.cleanse -->
<g id="edge11" class="edge">
<title>negf.bpt.retarbiasselfenergy&#45;&gt;negf.bpt.cleanse</title>
<path fill="none" stroke="#a3aeb2" d="M290.1,-191.69C295.41,-181.59 302.21,-168.65 308.17,-157.31"/>
<polygon fill="#a3aeb2" stroke="#a3aeb2" points="311.37,-158.74 312.93,-148.26 305.18,-155.49 311.37,-158.74"/>
<text text-anchor="middle" x="309" y="-168.4" font-family="Verdana" font-size="7.00" fill="#000000">117</text>
</g>
<!-- negf.bpt.cleanse&#45;&gt;negf.bpt.&lt;listcomp&gt; -->
<g id="edge10" class="edge">
<title>negf.bpt.cleanse&#45;&gt;negf.bpt.&lt;listcomp&gt;</title>
<path fill="none" stroke="#7777b2" d="M331.32,-111.69C336.76,-101.59 343.73,-88.65 349.83,-77.31"/>
<polygon fill="#7777b2" stroke="#7777b2" points="353.05,-78.73 354.7,-68.26 346.88,-75.41 353.05,-78.73"/>
<text text-anchor="middle" x="351" y="-88.4" font-family="Verdana" font-size="7.00" fill="#000000">780</text>
</g>
<!-- negf.bpt.kselfenergy&#45;&gt;negf.bpt.retarselfenergy -->
<g id="edge14" class="edge">
<title>negf.bpt.kselfenergy&#45;&gt;negf.bpt.retarselfenergy</title>
<path fill="none" stroke="#a8b0b2" d="M215.37,-271.99C231.03,-263.2 251.09,-252.89 270,-246 301.56,-234.49 312.87,-236.4 349.42,-228.01"/>
<polygon fill="#a8b0b2" stroke="#a8b0b2" points="350.37,-231.37 359.28,-225.63 348.74,-224.57 350.37,-231.37"/>
<text text-anchor="middle" x="275" y="-248.4" font-family="Verdana" font-size="7.00" fill="#000000">78</text>
</g>
<!-- negf.bpt.bosedist -->
<g id="node16" class="node">
<title>negf.bpt.bosedist</title>
<polygon fill="#cadce5" stroke="#cadce5" points="196,-228 116,-228 116,-192 196,-192 196,-228"/>
<text text-anchor="middle" x="156" y="-216.4" font-family="Verdana" font-size="7.00" fill="#000000">negf.bpt.bosedist</text>
<text text-anchor="middle" x="156" y="-208.4" font-family="Verdana" font-size="7.00" fill="#000000">calls: 273</text>
<text text-anchor="middle" x="156" y="-200.4" font-family="Verdana" font-size="7.00" fill="#000000">time: 0.010712s</text>
</g>
<!-- negf.bpt.kselfenergy&#45;&gt;negf.bpt.bosedist -->
<g id="edge15" class="edge">
<title>negf.bpt.kselfenergy&#45;&gt;negf.bpt.bosedist</title>
<path fill="none" stroke="#acb1b2" d="M180.12,-271.69C176.15,-261.69 171.07,-248.91 166.59,-237.65"/>
<polygon fill="#acb1b2" stroke="#acb1b2" points="169.81,-236.26 162.86,-228.26 163.3,-238.85 169.81,-236.26"/>
<text text-anchor="middle" x="177" y="-248.4" font-family="Verdana" font-size="7.00" fill="#000000">78</text>
</g>
<!-- negf.bpt.kbiasselfenergy&#45;&gt;negf.bpt.retarbiasselfenergy -->
<g id="edge17" class="edge">
<title>negf.bpt.kbiasselfenergy&#45;&gt;negf.bpt.retarbiasselfenergy</title>
<path fill="none" stroke="#acb1b2" d="M122.7,-274.13C142.18,-268.35 164.25,-261.35 184,-254 201.17,-247.61 219.65,-239.69 235.82,-232.4"/>
<polygon fill="#acb1b2" stroke="#acb1b2" points="237.4,-235.53 245.04,-228.19 234.49,-229.16 237.4,-235.53"/>
<text text-anchor="middle" x="207" y="-248.4" font-family="Verdana" font-size="7.00" fill="#000000">39</text>
</g>
<!-- negf.bpt.kbiasselfenergy&#45;&gt;negf.bpt.cleanse -->
<g id="edge18" class="edge">
<title>negf.bpt.kbiasselfenergy&#45;&gt;negf.bpt.cleanse</title>
<path fill="none" stroke="#a9b0b2" d="M69.1,-271.73C70.2,-250.09 75.38,-213.27 97,-192 144.1,-145.66 222.63,-133.62 273.35,-130.97"/>
<polygon fill="#a9b0b2" stroke="#a9b0b2" points="273.57,-134.47 283.41,-130.55 273.28,-127.47 273.57,-134.47"/>
<text text-anchor="middle" x="102" y="-208.4" font-family="Verdana" font-size="7.00" fill="#000000">39</text>
</g>
<!-- negf.bpt.kbiasselfenergy&#45;&gt;negf.bpt.bosedist -->
<g id="edge16" class="edge">
<title>negf.bpt.kbiasselfenergy&#45;&gt;negf.bpt.bosedist</title>
<path fill="none" stroke="#a3aeb2" d="M88.31,-271.69C100.36,-260.88 116.04,-246.82 129.28,-234.95"/>
<polygon fill="#a3aeb2" stroke="#a3aeb2" points="131.64,-237.54 136.75,-228.26 126.96,-232.33 131.64,-237.54"/>
<text text-anchor="middle" x="122" y="-248.4" font-family="Verdana" font-size="7.00" fill="#000000">195</text>
</g>
<!-- negf.bpt.advanselfenergy&#45;&gt;negf.bpt.retarselfenergy -->
<g id="edge21" class="edge">
<title>negf.bpt.advanselfenergy&#45;&gt;negf.bpt.retarselfenergy</title>
<path fill="none" stroke="#a8b0b2" d="M513.47,-271.88C494.59,-260.55 469.64,-245.58 449.2,-233.32"/>
<polygon fill="#a8b0b2" stroke="#a8b0b2" points="450.84,-230.22 440.46,-228.08 447.24,-236.22 450.84,-230.22"/>
<text text-anchor="middle" x="485" y="-248.4" font-family="Verdana" font-size="7.00" fill="#000000">78</text>
</g>
<!-- negf.bpt.advanbiasselfenergy&#45;&gt;negf.bpt.retarbiasselfenergy -->
<g id="edge22" class="edge">
<title>negf.bpt.advanbiasselfenergy&#45;&gt;negf.bpt.retarbiasselfenergy</title>
<path fill="none" stroke="#acb1b2" d="M367.07,-271.93C356.07,-266.68 344.33,-260.54 334,-254 324.99,-248.3 315.76,-241.29 307.59,-234.6"/>
<polygon fill="#acb1b2" stroke="#acb1b2" points="309.72,-231.82 299.81,-228.07 305.22,-237.18 309.72,-231.82"/>
<text text-anchor="middle" x="339" y="-248.4" font-family="Verdana" font-size="7.00" fill="#000000">39</text>
</g>
</g>
</svg>
